<?xml version="1.0" encoding="utf-8"?>
<!-- Generator: Adobe Illustrator 16.0.0, SVG Export Plug-In . SVG Version: 6.00 Build 0)  -->
<!DOCTYPE svg PUBLIC "-//W3C//DTD SVG 1.1//EN" "http://www.w3.org/Graphics/SVG/1.1/DTD/svg11.dtd">
<svg version="1.1" id="レイヤー_1" xmlns="http://www.w3.org/2000/svg" xmlns:xlink="http://www.w3.org/1999/xlink" x="0px"
	 y="0px" width="156.696px" height="156.696px" viewBox="0 0 156.696 156.696" enable-background="new 0 0 156.696 156.696"
	 xml:space="preserve">
<g>
	<g>
		<g>
			<path d="M30.866,16.482c5.174-3.741,3.545,2.412,1.577,8.807c-3.704,12.039-10.676,19.209-10.6,21.077
				c0.375,9.164,6.659,22.169,8.615,33.561c0.169,0.987-0.012,1.218-1.07,1.386c-2.278,0.361-3.418,0.552-5.701,0.957
				c-0.909,0.161-2.443,0.719-2.648-0.709c-1.445-10.085-4.089-27.309-6.691-26.459c-1.346,0.439-5.301,4.962-5.743,9.803
				c-0.599,6.567,2.085,18.277,2.162,18.884c0.186,1.473-1.125,1.323-1.63,1.439c-2.343,0.539-3.515,0.822-5.854,1.414
				c-5.577-7.23-2.459-20.735-0.417-29.369c3.052-12.9,11.218-25.329,20.949-35.069C26.501,19.762,27.917,18.614,30.866,16.482z
				 M26.072,29.153c1.761-4.671,0.642-5.138-1.106-4.106c-2.947,1.74-6.535,4.175-11.508,17.388
				c-0.605,1.607-1.594,4.727-0.357,4.221C14.502,46.082,23.5,35.976,26.072,29.153z"/>
			<path d="M57.701,3.782c1.366-0.36,1.527,0.568,1.327,3.472C57.536,28.956,45.54,48.583,48.506,70.762
				c0.285,2.129,0.877,4.133,1.203,6.139s-1.237,1.96-1.982,2.036c-2.308,0.234-3.465,0.36-5.786,0.637
				c-1.351,0.161-2.129-3.364-2.386-5.261c-1.543-11.39,2.11-20.827,1.608-23.326c-2.031-10.108-8.58-22.086-3.783-34.755
				c1.973-5.21,2.508-5.429,3.892-6.142c0.984-0.507,1.48-0.75,2.484-1.225c0.596-0.281,1.83-0.982,1.256,0.969
				c-0.165,0.558-1.507,4.464-1.814,5.717c-2.581,10.552,0.84,20.852,2.157,20.581c1.274-0.263,6.621-15.005,7.716-24.051
				c0.294-2.433,0.443-5.387,0.537-5.96c0.246-1.502,1.076-1.481,1.547-1.623C56.167,4.195,56.677,4.052,57.701,3.782z"/>
			<path d="M78.421,78.6c-13.39-0.87-16.898-20.798-17.302-30.741c-0.544-13.387,3.588-47.106,11.314-47.64
				c8.042-0.556,17.159,33.168,19.438,46.747c1.634,9.734,3.9,28.314-8.753,31.573C81.251,78.553,80.311,78.565,78.421,78.6z
				 M84.193,44.691c-1.416-9.626-7.926-32.156-10.845-31.966c-3.409,0.223-5.43,23.103-4.827,32.435
				c0.702,10.864,4.732,15.647,9.753,15.537C83.296,60.586,85.807,55.656,84.193,44.691z"/>
			<path d="M117.798,78.241c-0.41-0.03-1.516-0.013-1.656-1.566c-0.044-0.485-0.037-0.977-0.001-1.352
				c0.822-8.598,0.662-18.068-0.98-27.276c-1.128-6.326-2.702-8.534-5.479-8.943c-4.188-0.616-7.987,3.188-6.37,14.488
				c1.004,7.013,2.5,15.123,4.478,21.572c0.121,0.396,0.288,1.096,0.329,1.489c0.145,1.375-0.931,0.926-1.276,0.909
				c-2.54-0.125-3.828-0.181-6.434-0.271C96.97,66.92,96.373,55.2,94.858,44.435c-1.956-13.901-5.139-28.511-5.106-42.553
				c1.934,0.269,2.89,0.434,4.783,0.814c0.209,0.042,0.978-0.006,1.243,0.873c0.288,0.954,0.776,11.567,2.655,20.712
				c0.443,2.157,1.23,4.32,1.853,4.396c1.285,0.157,0.8-2.557,6.226-1.601c1.954,0.345,3.743,1.563,2.8-1.958
				c-2.133-7.961-8.935-19.513-9.263-20.457c-0.328-0.942,0.763-0.44,0.965-0.381c1.766,0.511,2.639,0.791,4.36,1.397
				c8.168,12.122,12.637,27.602,15.445,41.775c1.988,10.035,4.104,21.049,2.787,31.259C121.321,78.511,120.16,78.417,117.798,78.241
				z"/>
			<path d="M130.357,79.355c-2.002-0.021-0.971-3.785-3.994-22.477c-2.627-16.236-6.486-32.07-12.345-47.575
				c4.872,2.388,7.196,3.788,11.549,6.923c0.331,0.239,1.186,0.777,2.1,2.006c0.366,0.493,4.308,8.551,3.902,8.335
				c-0.529-0.283-3.212-4.101-6.314-5.669c-2.185-1.104-3.04,0.647-0.233,8.191c0.614,1.65,1.754,4.589,2.755,4.924
				c1.145,0.383,2.269-2.413,5.073-1.212c0.4,0.171,1.629,0.944,2.165,2.229c0.032,0.077,2.532,12.284,2.106,12.153
				c-0.355-0.11-2.165-2.19-3.577-2.609c-1.847-0.548-3.596,1.75-1.98,10.638c1.305,7.182,3.433,12.881,6.503,13.415
				c3.618,0.629,5.02-4.746,5.854-4.552c0.522,0.122,3.922,15.296,3.923,16.151c0.002,1.628-0.819,1.17-1.213,1.114
				C140.607,80.491,137.326,80.074,130.357,79.355z"/>
			<path d="M151.812,82.105c-2.475-9.016-2.945-21.007-5.516-29.944c-3.014-10.479-9.47-23.033-15.394-31.735
				c1.111,0.955,1.656,1.443,2.722,2.446c0.32,0.301,0.776,0.717,1.768,1.77c0.521,0.554,8.606,9.083,13.72,22.84
				c4.058,10.918,7.477,22.934,7.415,34.493c-0.004,0.767-0.22,0.851-0.479,0.808c-0.231-0.038-0.347-0.06-0.58-0.098
				C154.043,82.452,153.313,82.336,151.812,82.105z"/>
		</g>
	</g>
	<g>
		<g>
			<path d="M24.411,135.165c-1.504-1.411-3.292-1.956-10.349-12.025C7.37,113.592,3.107,99.957,5.956,88.32
				c9.687-2.21,14.566-3.084,24.244-4.483c0.736-0.106,2.946-0.664,2.916,1.036c-0.012,0.682-3.627,12.582-4.382,12.622
				c-0.986,0.053-2.958-3.57-8.736-2.979c-4.068,0.416-8.088,3.83-6.608,10.141c0.324,1.38,1.151,3.72,2.636,3.775
				c1.697,0.063,4.891-3.14,9.536-3.104c0.663,0.005,2.519,0.334,2.665,1.631c0.009,0.077-0.982,11.783-1.575,11.689
				c-0.495-0.078-2.707-1.741-4.638-2.024c-2.525-0.37-5.445,1.444-2.757,7.136c2.172,4.599,5.595,8.565,8.857,10.168
				c3.845,1.889,5.122-1.505,6.162-1.162c0.651,0.215,6.229,12.759,6.404,13.416c0.333,1.251-0.642,0.482-1.075,0.236
				C32.984,142.654,29.903,140.361,24.411,135.165z"/>
			<path d="M45.177,149.301c-4.54-7.539-5.562-18.229-6.34-26.874c-0.913-10.14-4.95-31.53,2.863-40.056
				c6.316-0.696,9.457-0.967,15.664-1.387c10.607-0.717,11.394,7.502,10.892,13.699c-0.863,10.652-7.538,16.34-7.672,19.156
				c-0.151,3.178,7.868,11.393,6.825,26.037c-0.594,8.342-3.708,15.705-10.395,13.82C52.104,152.314,49.726,151.425,45.177,149.301z
				 M54.253,107.972c1.668-1.843,4.25-6.316,4.471-10.161c0.258-4.501-2.109-5.599-4.336-5.525
				c-5.805,0.19-8.797,4.449-8.614,17.839c0.023,1.715-0.036,3.919,1.471,4.02c0.646,0.043,2.037-0.812,2.911-1.725
				C51.751,110.69,52.573,109.796,54.253,107.972z M48.688,124.034c-1.332,1.073-2.106,1.451-1.947,4.109
				c0.733,12.248,2.695,13.877,6.337,14.744c3.197,0.762,6.52-0.83,6.676-7.402c0.142-5.982-4.162-15.171-5.581-15.292
				c-0.683-0.059-1.63,0.807-2.198,1.263C50.628,122.52,49.971,123.036,48.688,124.034z"/>
			<path d="M72.787,156.44c-2.962-8.334-0.278-21.417,0.601-30.579c1.118-11.663-0.279-36.552,8.318-45.792
				c2.472-0.022,3.695-0.024,6.127-0.014c0.73,0.003,2.272-0.137,1.973,1.637c-1.905,11.266-5.548,24-6.945,36.075
				c-1.449,12.522-1.685,26.099-2.991,37.974c-0.084,0.763-0.419,0.887-0.818,0.891c-0.354,0.003-0.534,0.004-0.889,0.003
				C75.993,156.629,74.918,156.589,72.787,156.44z"/>
			<path d="M103.061,152.668c-0.493-7.589,1.634-20.628,1.29-29.401c-0.09-2.285-1.968-17.629-3.641-17.608
				c-1.307,0.016-2.498,10.242-2.8,12.082c-2.024,12.32-3.284,25.329-5.914,37.042c-0.222,0.989-0.992,0.839-1.375,0.899
				c-1.584,0.248-2.382,0.353-3.991,0.521c-2.044-7.938,1.716-21.421,3.084-30.194c1.843-11.813,1.136-36.423,9.558-45.759
				c1.714,0.049,2.565,0.075,4.252,0.139c8.245,9.162,8.006,28.239,9.188,39.69c0.044,0.418,0.02,1.505,0.441,1.455
				c0.469-0.056,1.274-3.762,1.505-4.951c2.174-11.22,2.36-23.266,2.976-34.4c0.07-1.281,1.206-0.984,2.145-0.919
				c1.502,0.104,2.243,0.16,3.713,0.273c5.522,10.667-1.484,31.148-4.478,41.727c-2.617,9.248-5.596,20.14-11.807,27.901
				C105.57,151.811,104.74,152.112,103.061,152.668z"/>
			<path d="M128.029,138.917c-0.287,0.235-1.343,1.149-0.726,0.325c1.153-1.539,7.901-8.729,11.743-15.605
				c1.517-2.715,0.457-3.168-1.233-2.549c-3.421,1.253-9.529,4.336-13.097,12.25c-2.472,5.483-3.198,9.567-3.764,10.485
				c-0.227,0.367-0.47,0.564-0.926,0.851c-2.004,1.258-3.035,1.851-5.137,2.958c-1.874,0.987,0.719-4.771,4.273-14.53
				c5.592-15.354,21.412-51.18,26.383-50.615c5.161,0.586,4.5,28.366-1.994,39.31c-8.396,14.147-11.134,13.259-12.042,14.096
				C130.154,137.142,129.457,137.748,128.029,138.917z M132.681,114.258c-0.278,0.915-0.154,1.388,0.346,1.288
				c0.75-0.149,5.396-2.84,8.807-3.626c1.356-0.313,2.097-0.79,2.761-2.692c1.471-4.21,0.81-13.412-0.737-13.388
				C141.66,95.875,134.377,108.691,132.681,114.258z"/>
		</g>
	</g>
</g>
</svg>
