<?xml version="1.0" encoding="utf-8"?>
<!-- Generator: Adobe Illustrator 16.0.0, SVG Export Plug-In . SVG Version: 6.00 Build 0)  -->
<!DOCTYPE svg PUBLIC "-//W3C//DTD SVG 1.1//EN" "http://www.w3.org/Graphics/SVG/1.1/DTD/svg11.dtd">
<svg version="1.1" id="レイヤー_1" xmlns="http://www.w3.org/2000/svg" xmlns:xlink="http://www.w3.org/1999/xlink" x="0px"
	 y="0px" width="358.918px" height="260.43px" viewBox="0 0 358.918 260.43" enable-background="new 0 0 358.918 260.43"
	 xml:space="preserve">
<g>
	<g>
		
			<image overflow="visible" opacity="0.75" enable-background="new    " width="300" height="300" xlink:href="F046FFCF.png"  transform="matrix(0.236 0 0 0.236 288.1182 -2.441406e-004)">
		</image>
		<g>
			
				<radialGradient id="SVGID_1_" cx="323.5078" cy="224.8455" r="19.8438" fx="320.9105" fy="228.2604" gradientTransform="matrix(1 0 0 -1 -0.0449 260.189)" gradientUnits="userSpaceOnUse">
				<stop  offset="0" style="stop-color:#FFFFFF"/>
				<stop  offset="1" style="stop-color:#F0E428"/>
			</radialGradient>
			<circle fill="url(#SVGID_1_)" cx="323.462" cy="35.344" r="19.844"/>
			<circle fill="none" stroke="#231815" stroke-miterlimit="10" cx="323.462" cy="35.344" r="19.844"/>
		</g>
	</g>
	
		<linearGradient id="SVGID_2_" gradientUnits="userSpaceOnUse" x1="307.207" y1="202.5232" x2="339.8066" y2="202.5232" gradientTransform="matrix(1 0 0 -1 -0.0449 260.189)">
		<stop  offset="0" style="stop-color:#717071"/>
		<stop  offset="0.25" style="stop-color:#F8F8F8"/>
		<stop  offset="1" style="stop-color:#717071"/>
	</linearGradient>
	<rect x="307.162" y="55.185" fill="url(#SVGID_2_)" stroke="#231815" stroke-miterlimit="10" width="32.6" height="4.962"/>
	
		<linearGradient id="SVGID_3_" gradientUnits="userSpaceOnUse" x1="303.6641" y1="196.1443" x2="343.3516" y2="196.1443" gradientTransform="matrix(1 0 0 -1 -0.0449 260.189)">
		<stop  offset="0" style="stop-color:#717071"/>
		<stop  offset="0.25" style="stop-color:#F8F8F8"/>
		<stop  offset="1" style="stop-color:#717071"/>
	</linearGradient>
	<path fill="url(#SVGID_3_)" stroke="#231815" stroke-miterlimit="10" d="M343.307,64.045c0,2.151-1.746,3.898-3.898,3.898h-31.891
		c-2.152,0-3.898-1.747-3.898-3.898l0,0c0-2.151,1.746-3.897,3.898-3.897h31.891C341.561,60.146,343.307,61.893,343.307,64.045
		L343.307,64.045z"/>
	<rect x="307.518" y="67.943" fill="#E4E4BA" stroke="#231815" stroke-miterlimit="10" width="32.243" height="138.9"/>
	
		<linearGradient id="SVGID_4_" gradientUnits="userSpaceOnUse" x1="307.207" y1="50.8621" x2="339.8066" y2="50.8621" gradientTransform="matrix(1 0 0 -1 -0.0449 260.189)">
		<stop  offset="0" style="stop-color:#717071"/>
		<stop  offset="0.25" style="stop-color:#F8F8F8"/>
		<stop  offset="1" style="stop-color:#717071"/>
	</linearGradient>
	<rect x="307.162" y="206.845" fill="url(#SVGID_4_)" stroke="#231815" stroke-miterlimit="10" width="32.6" height="4.963"/>
	
		<linearGradient id="SVGID_5_" gradientUnits="userSpaceOnUse" x1="303.8418" y1="44.4836" x2="343.5273" y2="44.4836" gradientTransform="matrix(1 0 0 -1 -0.0449 260.189)">
		<stop  offset="0" style="stop-color:#717071"/>
		<stop  offset="0.25" style="stop-color:#F8F8F8"/>
		<stop  offset="1" style="stop-color:#717071"/>
	</linearGradient>
	<path fill="url(#SVGID_5_)" stroke="#231815" stroke-miterlimit="10" d="M343.482,215.704c0,2.153-1.744,3.898-3.898,3.898h-31.891
		c-2.152,0-3.896-1.745-3.896-3.898l0,0c0-2.152,1.744-3.896,3.896-3.896h31.891C341.738,211.808,343.482,213.552,343.482,215.704
		L343.482,215.704z"/>
	
		<linearGradient id="SVGID_6_" gradientUnits="userSpaceOnUse" x1="303.8408" y1="33.2087" x2="343.5273" y2="33.2087" gradientTransform="matrix(1 0 0 -1 -0.0449 260.189)">
		<stop  offset="0" style="stop-color:#717071"/>
		<stop  offset="0.25" style="stop-color:#F8F8F8"/>
		<stop  offset="1" style="stop-color:#717071"/>
	</linearGradient>
	<rect x="303.796" y="219.893" fill="url(#SVGID_6_)" stroke="#231815" stroke-miterlimit="10" width="39.687" height="14.174"/>
	
		<linearGradient id="SVGID_7_" gradientUnits="userSpaceOnUse" x1="301.0723" y1="13.4221" x2="346.2969" y2="13.4221" gradientTransform="matrix(1 0 0 -1 -0.0449 260.189)">
		<stop  offset="0" style="stop-color:#717071"/>
		<stop  offset="0.25" style="stop-color:#F8F8F8"/>
		<stop  offset="1" style="stop-color:#595758"/>
	</linearGradient>
	<path fill="url(#SVGID_7_)" stroke="#231815" stroke-miterlimit="10" d="M346.251,254.345c0,2.826-2.293,5.121-5.123,5.121H306.15
		c-2.83,0-5.123-2.295-5.123-5.121V239.19c0-2.828,2.293-5.123,5.123-5.123h34.979c2.83,0,5.123,2.295,5.123,5.123L346.251,254.345
		L346.251,254.345z"/>
	<polyline fill="#A72224" stroke="#231815" stroke-miterlimit="10" points="307.583,90.082 307.583,96.725 307.583,103.367 
		340.005,81.228 340.005,67.943 329.895,74.848 307.583,90.082 	"/>
	<polyline fill="#123181" stroke="#231815" stroke-miterlimit="10" points="307.583,116.691 307.583,123.334 307.583,129.978 
		340.005,107.838 340.005,94.552 329.895,101.457 307.583,116.691 	"/>
	<polyline fill="#A72224" stroke="#231815" stroke-miterlimit="10" points="307.223,141.822 307.223,148.465 307.223,155.104 
		339.645,132.968 339.645,119.682 329.535,126.587 307.223,141.822 	"/>
	<polyline fill="#123181" stroke="#231815" stroke-miterlimit="10" points="307.223,166.397 307.223,173.039 307.223,179.684 
		339.645,157.543 339.645,144.258 329.535,151.164 307.223,166.397 	"/>
	<polyline fill="#A72224" stroke="#231815" stroke-miterlimit="10" points="307.427,190.993 307.427,197.637 307.427,204.279 
		339.852,182.137 339.852,168.855 329.74,175.758 307.427,190.993 	"/>
	<path fill="none" stroke="#231815" stroke-miterlimit="10" d="M339.654,121.896"/>
</g>
<g>
	<path fill="#737270" stroke="#231815" stroke-miterlimit="10" d="M175.326,239.501c0,3.014-2.443,5.455-5.457,5.455H87.675
		c-3.012,0-5.455-2.441-5.455-5.455l0,0c0-3.014,2.443-5.456,5.455-5.456h82.193C172.882,234.045,175.326,236.487,175.326,239.501
		L175.326,239.501z"/>
	
		<linearGradient id="SVGID_8_" gradientUnits="userSpaceOnUse" x1="236.0459" y1="133.1433" x2="257.0459" y2="133.1433" gradientTransform="matrix(1 0 0 -1 -0.0449 260.189)">
		<stop  offset="0" style="stop-color:#FFFFFF"/>
		<stop  offset="0.1429" style="stop-color:#FBFBFC"/>
		<stop  offset="0.8827" style="stop-color:#C8C9CA"/>
		<stop  offset="1" style="stop-color:#656464"/>
		<stop  offset="1" style="stop-color:#61605F"/>
	</linearGradient>
	<circle fill="url(#SVGID_8_)" stroke="#231815" stroke-miterlimit="10" cx="246.501" cy="127.046" r="10.5"/>
	
		<linearGradient id="SVGID_9_" gradientUnits="userSpaceOnUse" x1="229.5449" y1="124.7839" x2="242.5449" y2="124.7839" gradientTransform="matrix(1 0 0 -1 -0.0449 260.189)">
		<stop  offset="0" style="stop-color:#FFFFFF"/>
		<stop  offset="0.1429" style="stop-color:#FBFBFC"/>
		<stop  offset="0.8827" style="stop-color:#C8C9CA"/>
		<stop  offset="1" style="stop-color:#656464"/>
		<stop  offset="1" style="stop-color:#61605F"/>
	</linearGradient>
	<path fill="url(#SVGID_9_)" stroke="#231815" stroke-miterlimit="10" d="M242.5,129.252c-10,5-13,12.307-13,12.307h2.75
		c4.5-6.307,10.25-9.807,10.25-9.807V129.252z"/>
	
		<linearGradient id="SVGID_10_" gradientUnits="userSpaceOnUse" x1="241.0449" y1="130.2219" x2="246.2031" y2="130.2219" gradientTransform="matrix(1 0 0 -1 -0.0449 260.189)">
		<stop  offset="0" style="stop-color:#FFFFFF"/>
		<stop  offset="0.1429" style="stop-color:#FBFBFC"/>
		<stop  offset="0.8827" style="stop-color:#C8C9CA"/>
		<stop  offset="1" style="stop-color:#656464"/>
		<stop  offset="1" style="stop-color:#61605F"/>
	</linearGradient>
	<circle fill="url(#SVGID_10_)" stroke="#231815" stroke-miterlimit="10" cx="243.579" cy="129.967" r="2.579"/>
	
		<linearGradient id="SVGID_11_" gradientUnits="userSpaceOnUse" x1="0.5449" y1="132.4421" x2="21.5449" y2="132.4421" gradientTransform="matrix(1 0 0 -1 -0.0449 260.189)">
		<stop  offset="0" style="stop-color:#FFFFFF"/>
		<stop  offset="0.1429" style="stop-color:#FBFBFC"/>
		<stop  offset="0.8827" style="stop-color:#C8C9CA"/>
		<stop  offset="1" style="stop-color:#656464"/>
		<stop  offset="1" style="stop-color:#61605F"/>
	</linearGradient>
	<circle fill="url(#SVGID_11_)" stroke="#231815" stroke-miterlimit="10" cx="11" cy="127.747" r="10.5"/>
	
		<linearGradient id="SVGID_12_" gradientUnits="userSpaceOnUse" x1="12.8921" y1="125.6433" x2="25.1987" y2="125.6433" gradientTransform="matrix(1 0 0 -1 -0.0449 260.189)">
		<stop  offset="0" style="stop-color:#FFFFFF"/>
		<stop  offset="0.1429" style="stop-color:#FBFBFC"/>
		<stop  offset="0.8827" style="stop-color:#C8C9CA"/>
		<stop  offset="1" style="stop-color:#656464"/>
		<stop  offset="1" style="stop-color:#61605F"/>
	</linearGradient>
	<path fill="url(#SVGID_12_)" stroke="#231815" stroke-miterlimit="10" d="M25.154,141.046c-5-10-12.307-13-12.307-13v2.75
		c6.307,4.5,9.807,10.25,9.807,10.25H25.154z"/>
	
		<linearGradient id="SVGID_13_" gradientUnits="userSpaceOnUse" x1="10.4077" y1="130.5212" x2="15.5659" y2="130.5212" gradientTransform="matrix(1 0 0 -1 -0.0449 260.189)">
		<stop  offset="0" style="stop-color:#FFFFFF"/>
		<stop  offset="0.1429" style="stop-color:#FBFBFC"/>
		<stop  offset="0.8827" style="stop-color:#C8C9CA"/>
		<stop  offset="1" style="stop-color:#656464"/>
		<stop  offset="1" style="stop-color:#61605F"/>
	</linearGradient>
	<circle fill="url(#SVGID_13_)" stroke="#231815" stroke-miterlimit="10" cx="12.942" cy="129.668" r="2.579"/>
	<path fill="#737270" stroke="#231815" stroke-miterlimit="10" d="M45.175,245.756c0,7.827-5.234,14.174-11.692,14.174h-8.789
		c-6.458,0-11.692-6.347-11.692-14.174v-30.653c0-7.827,5.235-14.173,11.692-14.173h8.789c6.458,0,11.692,6.346,11.692,14.173
		V245.756z"/>
	<line fill="none" stroke="#231815" stroke-miterlimit="10" x1="19.001" y1="215.429" x2="19.001" y2="257.652"/>
	<line fill="none" stroke="#231815" stroke-miterlimit="10" x1="23.001" y1="222.999" x2="23.001" y2="259.304"/>
	<line fill="none" stroke="#231815" stroke-miterlimit="10" x1="28.001" y1="222.999" x2="28.001" y2="259.679"/>
	<line fill="none" stroke="#231815" stroke-miterlimit="10" x1="32.001" y1="222.999" x2="32.001" y2="259.679"/>
	<line fill="none" stroke="#231815" stroke-miterlimit="10" x1="37.001" y1="222.999" x2="37.001" y2="259.679"/>
	<line fill="none" stroke="#231815" stroke-miterlimit="10" x1="41.001" y1="222.999" x2="41.001" y2="256.608"/>
	<path fill="#737270" stroke="#231815" stroke-miterlimit="10" d="M241.052,245.756c0,7.827-5.233,14.174-11.692,14.174h-8.789
		c-6.457,0-11.691-6.347-11.691-14.174v-30.653c0-7.827,5.234-14.173,11.691-14.173h8.789c6.459,0,11.692,6.346,11.692,14.173
		V245.756z"/>
	<line fill="none" stroke="#231815" stroke-miterlimit="10" x1="214.878" y1="215.429" x2="214.878" y2="257.652"/>
	<line fill="none" stroke="#231815" stroke-miterlimit="10" x1="218.878" y1="222.999" x2="218.878" y2="259.304"/>
	<line fill="none" stroke="#231815" stroke-miterlimit="10" x1="223.878" y1="222.999" x2="223.878" y2="259.679"/>
	<line fill="none" stroke="#231815" stroke-miterlimit="10" x1="227.878" y1="222.999" x2="227.878" y2="259.679"/>
	<line fill="none" stroke="#231815" stroke-miterlimit="10" x1="232.878" y1="222.999" x2="232.878" y2="259.679"/>
	<line fill="none" stroke="#231815" stroke-miterlimit="10" x1="236.878" y1="222.999" x2="236.878" y2="256.603"/>
	<polygon fill="#90CBDF" stroke="#231815" stroke-miterlimit="10" points="44.271,55.046 25.076,142.111 229.35,142.111 
		212.175,53.802 	"/>
	<g>
		<path fill="#90CBDF" d="M247.273,189.881c-1.66,21.765-20.81,41.12-42.553,43.015l-42.584,3.708
			c-21.744,1.894-57.311,1.727-79.036-0.371l-30.704-2.966c-21.726-2.099-41.374-21.574-43.663-43.28l-1.452-13.772
			c-2.289-21.706,13.604-41.287,35.317-43.513l5.925-0.607c21.712-2.226,47.127-3.988,56.477-3.918s27.913,0.21,41.253,0.312
			s42.022,1.96,63.742,4.131l1.84,0.184c21.72,2.172,38.131,21.755,36.472,43.519L247.273,189.881z"/>
		<path fill="none" stroke="#231815" stroke-miterlimit="10" d="M247.273,189.881c-1.66,21.765-20.81,41.12-42.553,43.015
			l-42.584,3.708c-21.744,1.894-57.311,1.727-79.036-0.371l-30.704-2.966c-21.726-2.099-41.374-21.574-43.663-43.28l-1.452-13.772
			c-2.289-21.706,13.604-41.287,35.317-43.513l5.925-0.607c21.712-2.226,47.127-3.988,56.477-3.918s27.913,0.21,41.253,0.312
			s42.022,1.96,63.742,4.131l1.84,0.184c21.72,2.172,38.131,21.755,36.472,43.519L247.273,189.881z"/>
	</g>
	
		<linearGradient id="SVGID_14_" gradientUnits="userSpaceOnUse" x1="8.5459" y1="43.1433" x2="246.5459" y2="43.1433" gradientTransform="matrix(1 0 0 -1 -0.0449 260.189)">
		<stop  offset="0" style="stop-color:#FFFFFF"/>
		<stop  offset="0.1429" style="stop-color:#FBFBFC"/>
		<stop  offset="0.8827" style="stop-color:#C8C9CA"/>
		<stop  offset="1" style="stop-color:#656464"/>
		<stop  offset="1" style="stop-color:#61605F"/>
	</linearGradient>
	<path fill="url(#SVGID_14_)" stroke="#231815" stroke-miterlimit="10" d="M246.501,217.046c0,4.418-3.856,8-8.614,8H17.116
		c-4.758,0-8.615-3.582-8.615-8l0,0c0-4.418,3.857-8,8.615-8h220.771C242.645,209.046,246.501,212.628,246.501,217.046
		L246.501,217.046z"/>
	<rect x="99.001" y="221.546" fill="#FFFFFF" stroke="#231815" stroke-miterlimit="10" width="56" height="28"/>
	<circle fill="#FFFFFF" stroke="#231815" stroke-miterlimit="10" cx="45.501" cy="164.046" r="17.5"/>
	
		<linearGradient id="SVGID_15_" gradientUnits="userSpaceOnUse" x1="28.0459" y1="96.1433" x2="63.0459" y2="96.1433" gradientTransform="matrix(1 0 0 -1 -0.0449 260.189)">
		<stop  offset="0" style="stop-color:#FFFFFF"/>
		<stop  offset="0.1429" style="stop-color:#FBFBFC"/>
		<stop  offset="0.8827" style="stop-color:#C8C9CA"/>
		<stop  offset="1" style="stop-color:#656464"/>
		<stop  offset="1" style="stop-color:#61605F"/>
	</linearGradient>
	<circle fill="url(#SVGID_15_)" stroke="#231815" stroke-miterlimit="10" cx="45.501" cy="164.046" r="17.5"/>
	
		<linearGradient id="SVGID_16_" gradientUnits="userSpaceOnUse" x1="31.0459" y1="95.8171" x2="59.394" y2="95.8171" gradientTransform="matrix(1 0 0 -1 -0.0449 260.189)">
		<stop  offset="0" style="stop-color:#FFFFFF"/>
		<stop  offset="0.2" style="stop-color:#C8C9CA"/>
	</linearGradient>
	<circle fill="url(#SVGID_16_)" stroke="#231815" stroke-miterlimit="10" cx="45.175" cy="164.372" r="14.174"/>
	<circle fill="#FFFFFF" stroke="#231815" stroke-miterlimit="10" cx="44.271" cy="164.276" r="3.328"/>
	<circle fill="#FFFFFF" stroke="#231815" stroke-miterlimit="10" cx="44.271" cy="164.276" r="3.328"/>
	<circle fill="#FFFFFF" stroke="#231815" stroke-miterlimit="10" cx="212.501" cy="165.372" r="14.174"/>
	
		<linearGradient id="SVGID_17_" gradientUnits="userSpaceOnUse" x1="195.0459" y1="94.8953" x2="230.0459" y2="94.8953" gradientTransform="matrix(1 0 0 -1 -0.0449 260.189)">
		<stop  offset="0" style="stop-color:#FFFFFF"/>
		<stop  offset="0.1429" style="stop-color:#FBFBFC"/>
		<stop  offset="0.8827" style="stop-color:#C8C9CA"/>
		<stop  offset="1" style="stop-color:#656464"/>
		<stop  offset="1" style="stop-color:#61605F"/>
	</linearGradient>
	<circle fill="url(#SVGID_17_)" stroke="#231815" stroke-miterlimit="10" cx="212.501" cy="165.294" r="17.5"/>
	
		<linearGradient id="SVGID_18_" gradientUnits="userSpaceOnUse" x1="198.0459" y1="94.8171" x2="226.3945" y2="94.8171" gradientTransform="matrix(1 0 0 -1 -0.0449 260.189)">
		<stop  offset="0" style="stop-color:#FFFFFF"/>
		<stop  offset="0.2" style="stop-color:#C8C9CA"/>
	</linearGradient>
	<circle fill="url(#SVGID_18_)" stroke="#231815" stroke-miterlimit="10" cx="212.175" cy="165.372" r="14.174"/>
	<circle fill="#FFFFFF" stroke="#231815" stroke-miterlimit="10" cx="212.501" cy="165.372" r="3.328"/>
	<path fill="#FFFFFF" stroke="#231815" stroke-miterlimit="10" d="M175.552,6.851"/>
	<ellipse fill="#FFFFFF" stroke="#231815" stroke-miterlimit="10" cx="129.34" cy="53.046" rx="81.835" ry="7"/>
	<path fill="#90CBDF" stroke="#231815" stroke-miterlimit="10" d="M218.501,58.546c0,1.935-1.385,3.5-3.097,3.5h-172.5
		c-1.71,0-3.096-1.565-3.096-3.5l0,0c0-1.933,1.386-3.5,3.096-3.5h172.5C217.117,55.046,218.501,56.613,218.501,58.546
		L218.501,58.546z"/>
	<path fill="none" stroke="#231815" stroke-miterlimit="10" d="M195.001,131.117c-6.574,2.924-20.861,29.248-20.861,29.244"/>
	<path fill="none" stroke="#231815" stroke-miterlimit="10" d="M64.464,130.459c9.354,8.427,17.484,33.913,17.484,33.913"/>
	<circle fill="#FFFFFF" stroke="#231815" stroke-miterlimit="10" cx="45.464" cy="195.009" r="8.463"/>
	
		<radialGradient id="SVGID_19_" cx="45.5459" cy="65.1804" r="6.668" gradientTransform="matrix(1 0 0 -1 -0.0449 260.189)" gradientUnits="userSpaceOnUse">
		<stop  offset="0" style="stop-color:#FFFFFF"/>
		<stop  offset="0.3367" style="stop-color:#E89214"/>
	</radialGradient>
	<circle fill="url(#SVGID_19_)" stroke="#231815" stroke-miterlimit="10" cx="45.501" cy="195.009" r="6.668"/>
	<circle fill="#FFFFFF" stroke="#231815" stroke-miterlimit="10" cx="212.501" cy="195.598" r="8.463"/>
	
		<radialGradient id="SVGID_20_" cx="212.5459" cy="64.5916" r="6.668" gradientTransform="matrix(1 0 0 -1 -0.0449 260.189)" gradientUnits="userSpaceOnUse">
		<stop  offset="0" style="stop-color:#FFFFFF"/>
		<stop  offset="0.3367" style="stop-color:#E89214"/>
	</radialGradient>
	<circle fill="url(#SVGID_20_)" stroke="#231815" stroke-miterlimit="10" cx="212.501" cy="195.597" r="6.668"/>
	<g>
		
			<linearGradient id="SVGID_21_" gradientUnits="userSpaceOnUse" x1="57.6558" y1="74.1423" x2="201.3428" y2="74.1423" gradientTransform="matrix(1 0 0 -1 -0.0449 260.189)">
			<stop  offset="0" style="stop-color:#FFFFFF"/>
			<stop  offset="0.1429" style="stop-color:#FBFBFC"/>
			<stop  offset="0.898" style="stop-color:#61605F"/>
			<stop  offset="0.9082" style="stop-color:#595758"/>
		</linearGradient>
		<path fill="url(#SVGID_21_)" d="M200.507,194.919c2.892,8.896-2.397,16.177-11.752,16.177H69.925
			c-9.354,0-14.496-7.229-11.425-16.065l6.244-17.967c3.07-8.836,13.236-16.065,22.59-16.065h85.145
			c9.354,0,19.373,7.279,22.264,16.176L200.507,194.919z"/>
		<path fill="none" stroke="#231815" stroke-miterlimit="10" d="M200.507,194.919c2.892,8.896-2.397,16.177-11.752,16.177H69.925
			c-9.354,0-14.496-7.229-11.425-16.065l6.244-17.967c3.07-8.836,13.236-16.065,22.59-16.065h85.145
			c9.354,0,19.373,7.279,22.264,16.176L200.507,194.919z"/>
	</g>
	<g>
		<path fill="#070001" d="M196.686,192.135c3.234,8.777-1.772,15.96-11.127,15.96H74.925c-9.354,0-14.202-7.121-10.773-15.824
			l4.005-10.164c3.43-8.703,13.889-15.823,23.243-15.823h78.754c9.354,0,19.653,7.182,22.888,15.959L196.686,192.135z"/>
		<path fill="none" stroke="#231815" stroke-miterlimit="10" d="M196.686,192.135c3.234,8.777-1.772,15.96-11.127,15.96H74.925
			c-9.354,0-14.202-7.121-10.773-15.824l4.005-10.164c3.43-8.703,13.889-15.823,23.243-15.823h78.754
			c9.354,0,19.653,7.182,22.888,15.959L196.686,192.135z"/>
	</g>
	
		<linearGradient id="SVGID_22_" gradientUnits="userSpaceOnUse" x1="78.7358" y1="97.884" x2="183.2959" y2="97.884" gradientTransform="matrix(1 0 0 -1 -0.0449 260.189)">
		<stop  offset="0" style="stop-color:#FFFFFF"/>
		<stop  offset="0.1429" style="stop-color:#FBFBFC"/>
		<stop  offset="0.898" style="stop-color:#61605F"/>
		<stop  offset="0.9082" style="stop-color:#595758"/>
	</linearGradient>
	<ellipse fill="url(#SVGID_22_)" stroke="#231815" stroke-miterlimit="10" cx="130.971" cy="162.305" rx="52.28" ry="3.067"/>
	<g>
		
			<linearGradient id="SVGID_23_" gradientUnits="userSpaceOnUse" x1="34.1875" y1="164.281" x2="221.5605" y2="164.281" gradientTransform="matrix(1 0 0 -1 -0.0449 260.189)">
			<stop  offset="0" style="stop-color:#FFFFFF"/>
			<stop  offset="0.1429" style="stop-color:#FBFBFC"/>
			<stop  offset="0.8827" style="stop-color:#C8C9CA"/>
			<stop  offset="1" style="stop-color:#656464"/>
			<stop  offset="1" style="stop-color:#61605F"/>
		</linearGradient>
		<path fill="url(#SVGID_23_)" d="M221.333,113.592c1.124,6.135-3.06,11.168-9.295,11.187L43.34,125.272
			c-6.236,0.018-10.263-4.955-8.949-11.051l7.89-36.593c1.314-6.096,7.492-11.084,13.728-11.084h145.365
			c6.235,0,12.259,5.02,13.383,11.153L221.333,113.592z"/>
		<path fill="none" stroke="#231815" stroke-miterlimit="10" d="M221.333,113.592c1.124,6.135-3.06,11.168-9.295,11.187
			L43.34,125.272c-6.236,0.018-10.263-4.955-8.949-11.051l7.89-36.593c1.314-6.096,7.492-11.084,13.728-11.084h145.365
			c6.235,0,12.259,5.02,13.383,11.153L221.333,113.592z"/>
	</g>
	<g>
		
			<linearGradient id="SVGID_24_" gradientUnits="userSpaceOnUse" x1="38.2778" y1="164.7576" x2="217.9238" y2="164.7576" gradientTransform="matrix(1 0 0 -1 -0.0449 260.189)">
			<stop  offset="0" style="stop-color:#FFFFFF"/>
			<stop  offset="0.2" style="stop-color:#D8EDF9"/>
		</linearGradient>
		<path fill="url(#SVGID_24_)" d="M217.678,110.659c1.18,6.124-2.959,11.148-9.195,11.166l-161.144,0.449
			c-6.236,0.018-10.211-4.944-8.833-11.027l7.158-31.6c1.378-6.083,7.608-11.06,13.844-11.06H198.24
			c6.236,0,12.304,5.011,13.482,11.135L217.678,110.659z"/>
		<path fill="none" stroke="#231815" stroke-miterlimit="10" d="M217.678,110.659c1.18,6.124-2.959,11.148-9.195,11.166
			l-161.144,0.449c-6.236,0.018-10.211-4.944-8.833-11.027l7.158-31.6c1.378-6.083,7.608-11.06,13.844-11.06H198.24
			c6.236,0,12.304,5.011,13.482,11.135L217.678,110.659z"/>
	</g>
	
		<linearGradient id="SVGID_25_" gradientUnits="userSpaceOnUse" x1="80.5459" y1="143.1755" x2="121.5459" y2="143.1755" gradientTransform="matrix(1 0 0 -1 -0.0449 260.189)">
		<stop  offset="0" style="stop-color:#FFFFFF"/>
		<stop  offset="0.1429" style="stop-color:#FBFBFC"/>
		<stop  offset="0.8827" style="stop-color:#C8C9CA"/>
		<stop  offset="1" style="stop-color:#656464"/>
		<stop  offset="1" style="stop-color:#61605F"/>
	</linearGradient>
	<polygon fill="url(#SVGID_25_)" stroke="#231815" stroke-miterlimit="10" points="80.501,115.013 121.501,115.013 121.501,119.013 
		93.314,119.013 80.501,119.013 	"/>
	
		<linearGradient id="SVGID_26_" gradientUnits="userSpaceOnUse" x1="80.5459" y1="136.0564" x2="94.5459" y2="136.0564" gradientTransform="matrix(1 0 0 -1 -0.0449 260.189)">
		<stop  offset="0" style="stop-color:#FFFFFF"/>
		<stop  offset="0.1429" style="stop-color:#FBFBFC"/>
		<stop  offset="0.8827" style="stop-color:#C8C9CA"/>
		<stop  offset="1" style="stop-color:#656464"/>
		<stop  offset="1" style="stop-color:#61605F"/>
	</linearGradient>
	<path fill="url(#SVGID_26_)" stroke="#231815" stroke-miterlimit="10" d="M80.501,129.037c1.5-2.858,10-9.81,10-9.81h4
		c-4.5,4.497-9.5,9.81-9.5,9.81H80.501z"/>
	
		<linearGradient id="SVGID_27_" gradientUnits="userSpaceOnUse" x1="149.0459" y1="143.1755" x2="190.0459" y2="143.1755" gradientTransform="matrix(1 0 0 -1 -0.0449 260.189)">
		<stop  offset="0" style="stop-color:#FFFFFF"/>
		<stop  offset="0.1429" style="stop-color:#FBFBFC"/>
		<stop  offset="0.8827" style="stop-color:#C8C9CA"/>
		<stop  offset="1" style="stop-color:#656464"/>
		<stop  offset="1" style="stop-color:#61605F"/>
	</linearGradient>
	<polygon fill="url(#SVGID_27_)" stroke="#231815" stroke-miterlimit="10" points="149.001,115.013 190.001,115.013 
		190.001,119.013 161.814,119.013 149.001,119.013 	"/>
	
		<linearGradient id="SVGID_28_" gradientUnits="userSpaceOnUse" x1="149.0459" y1="136.4294" x2="163.0459" y2="136.4294" gradientTransform="matrix(1 0 0 -1 -0.0449 260.189)">
		<stop  offset="0" style="stop-color:#FFFFFF"/>
		<stop  offset="0.1429" style="stop-color:#FBFBFC"/>
		<stop  offset="0.8827" style="stop-color:#C8C9CA"/>
		<stop  offset="1" style="stop-color:#656464"/>
		<stop  offset="1" style="stop-color:#61605F"/>
	</linearGradient>
	<path fill="url(#SVGID_28_)" stroke="#231815" stroke-miterlimit="10" d="M149.001,128.341c1.5-2.671,10-9.161,10-9.161h4
		c-4.5,4.199-9.5,9.161-9.5,9.161H149.001z"/>
	<path fill="none" stroke="#231815" stroke-miterlimit="10" d="M125.501,128.252v20.946c2.5,2.348,2.5,2.348,2.5,2.348v5"/>
	<path fill="#FFFFFF" stroke="#231815" stroke-miterlimit="10" d="M122.001,152.546"/>
	<polyline fill="none" stroke="#231815" stroke-miterlimit="10" points="130.667,128.36 130.667,148.15 128.001,151.546 	"/>
	<line fill="none" stroke="#231815" stroke-miterlimit="10" x1="128.001" y1="128.36" x2="128.001" y2="160.361"/>
	<g>
		<path fill="#231815" d="M107.72,239.538c-0.063,0-0.094-0.076-0.094-0.219v-1.637c0-0.078,0.031-0.222,0.158-0.222h1.363v-4.086
			h-1.395c-0.051,0-0.121-0.033-0.121-0.199v-1.713c0-0.108,0.051-0.166,0.139-0.166h6.148c0.125,0,0.176,0.111,0.227,0.188
			l0.697,1.67l0.609-1.691c0.051-0.088,0.102-0.166,0.195-0.166h5.834c0.076,0,0.107,0.078,0.107,0.188v1.746
			c0,0.11-0.045,0.145-0.107,0.145h-1.357v4.086h1.389c0.064,0,0.127,0.056,0.127,0.252v1.66c0,0.109-0.063,0.164-0.158,0.164
			h-5.934c-0.063,0-0.127-0.055-0.127-0.186v-1.748c0-0.088,0.064-0.144,0.127-0.144h1.377v-4.252h-0.02l-2.59,6.197
			c-0.045,0.076-0.107,0.131-0.189,0.131h-0.59c-0.063,0-0.127-0.021-0.17-0.164l-2.471-6.055h-0.014v4.143h1.359
			c0.074,0,0.105,0.056,0.105,0.197v1.748c0,0.109-0.094,0.131-0.168,0.131H107.72L107.72,239.538z"/>
		<path fill="#231815" d="M121.89,231.507c0-0.143,0.045-0.209,0.102-0.209h6.129c0.057,0,0.131,0.023,0.131,0.101v1.824
			c0,0.108-0.043,0.153-0.094,0.153h-1.426v4.107h1.426c0.063,0,0.094,0.045,0.094,0.121v1.748c0,0.131-0.012,0.186-0.094,0.186
			h-6.135c-0.102,0-0.133-0.076-0.133-0.154v-1.713c0-0.153,0.045-0.209,0.082-0.209h1.428v-4.098h-1.391
			c-0.068,0-0.119-0.045-0.119-0.109V231.507z"/>
		<path fill="#231815" d="M134.244,231.298c0.063,0,0.133,0.058,0.195,0.134l3.23,4.778v-2.834h-1.383
			c-0.094,0-0.145-0.057-0.145-0.145v-1.691c0-0.131,0.045-0.242,0.088-0.242h4.488c0.113,0,0.139,0.166,0.139,0.275v1.604
			c0,0.144-0.063,0.199-0.145,0.199h-1.338v5.865c0,0.188-0.033,0.297-0.113,0.297h-3.873c-0.045,0-0.113-0.01-0.158-0.076
			l-3.539-5.239v3.239h1.453c0.074,0,0.156,0.056,0.156,0.164v1.67c0,0.166-0.049,0.242-0.125,0.242h-4.584
			c-0.063,0-0.094-0.076-0.094-0.219v-1.66c0-0.088,0.031-0.197,0.158-0.197h1.363v-4.086h-1.408c-0.043,0-0.107-0.033-0.107-0.199
			v-1.713c0-0.108,0.064-0.166,0.158-0.166H134.244z"/>
		<path fill="#231815" d="M141.103,231.507c0-0.143,0.045-0.209,0.102-0.209h6.129c0.057,0,0.131,0.023,0.131,0.101v1.824
			c0,0.108-0.043,0.153-0.094,0.153h-1.426v4.107h1.426c0.063,0,0.094,0.045,0.094,0.121v1.748c0,0.131-0.012,0.186-0.094,0.186
			h-6.135c-0.102,0-0.133-0.076-0.133-0.154v-1.713c0-0.153,0.045-0.209,0.082-0.209h1.428v-4.098h-1.391
			c-0.068,0-0.119-0.045-0.119-0.109V231.507z"/>
	</g>
	<line fill="none" stroke="#9A9999" stroke-width="3" stroke-miterlimit="10" x1="68.695" y1="183.546" x2="193.521" y2="183.546"/>
	<line fill="none" stroke="#9A9999" stroke-width="3" stroke-miterlimit="10" x1="71.642" y1="178.546" x2="190.001" y2="178.546"/>
	<line fill="none" stroke="#9A9999" stroke-width="3" stroke-miterlimit="10" x1="65.701" y1="188.341" x2="195.001" y2="188.341"/>
	<line fill="none" stroke="#9A9999" stroke-width="3" stroke-miterlimit="10" x1="64.464" y1="193.341" x2="195.001" y2="193.341"/>
	<line fill="none" stroke="#9A9999" stroke-width="3" stroke-miterlimit="10" x1="64.464" y1="199.009" x2="196.333" y2="199.009"/>
	<line fill="none" stroke="#9A9999" stroke-width="3" stroke-miterlimit="10" x1="67.001" y1="204.472" x2="193.521" y2="204.472"/>
	<line fill="none" stroke="#9A9999" stroke-width="3" stroke-miterlimit="10" x1="76.835" y1="173.546" x2="184.572" y2="173.546"/>
	<line fill="none" stroke="#9A9999" stroke-width="3" stroke-miterlimit="10" x1="83.751" y1="168.701" x2="175.326" y2="168.701"/>
</g>
</svg>
