<?xml version="1.0" encoding="utf-8"?>
<!-- Generator: Adobe Illustrator 16.0.0, SVG Export Plug-In . SVG Version: 6.00 Build 0)  -->
<!DOCTYPE svg PUBLIC "-//W3C//DTD SVG 1.1//EN" "http://www.w3.org/Graphics/SVG/1.1/DTD/svg11.dtd">
<svg version="1.1" id="レイヤー_1" xmlns="http://www.w3.org/2000/svg" xmlns:xlink="http://www.w3.org/1999/xlink" x="0px"
	 y="0px" width="58.191px" height="58.191px" viewBox="0 0 58.191 58.191" enable-background="new 0 0 58.191 58.191"
	 xml:space="preserve">
<g>
	<path d="M29.096,0C13.021,0,0,13.029,0,29.096c0,16.066,13.021,29.096,29.097,29.096c16.065,0,29.096-13.029,29.096-29.096
		C58.192,13.029,45.162,0,29.096,0z M29.759,25.313c0.007,0.001,0.014,0.001,0.02,0.001c-0.109-0.455-0.164-0.929-0.164-1.419
		c0-3.438,2.791-6.229,6.229-6.229c1.791,0,3.409,0.755,4.546,1.974c1.164-0.23,2.267-0.629,3.289-1.157
		c0.223-0.11,0.442-0.22,0.658-0.341c-0.371,1.149-1.081,2.146-1.996,2.895c-0.233,0.186-0.472,0.365-0.734,0.514
		c0.013-0.001,0.022-0.003,0.034-0.004c-0.012,0.006-0.021,0.017-0.032,0.022c1.016-0.118,1.992-0.365,2.924-0.714
		c0.211-0.076,0.424-0.152,0.635-0.237c-0.834,1.236-1.884,2.329-3.095,3.197c0.019,0.271,0.019,0.536,0.019,0.809
		c0,8.229-6.265,17.722-17.721,17.722c-3.519,0-6.792-1.026-9.547-2.801c0.491,0.056,0.982,0.091,1.491,0.091
		c2.127,0,4.125-0.535,5.877-1.471c0.037-0.021,0.076-0.037,0.113-0.057c0.111-0.063,0.219-0.131,0.328-0.195
		c0.484-0.28,0.958-0.586,1.409-0.933c-0.007,0-0.014-0.002-0.021-0.002c0.007-0.005,0.015-0.011,0.021-0.017
		c-2.375-0.04-4.431-1.42-5.445-3.417c-0.144-0.286-0.264-0.588-0.362-0.899c0.378,0.07,0.765,0.106,1.161,0.106
		c0.415,0,0.811-0.052,1.199-0.127c0.147-0.023,0.297-0.042,0.442-0.073c-0.012-0.003-0.021-0.008-0.034-0.01
		c0.013-0.004,0.025-0.005,0.038-0.008c-2.854-0.573-5.001-3.092-5.001-6.11v-0.071c0.664,0.362,1.397,0.609,2.177,0.714
		c0.213,0.033,0.426,0.06,0.641,0.073c-0.008-0.006-0.016-0.014-0.023-0.02c0.013,0.001,0.022,0.004,0.034,0.004
		c-1.673-1.119-2.772-3.02-2.772-5.183c0-0.978,0.238-1.899,0.644-2.727c0.068-0.133,0.128-0.269,0.207-0.396
		c3.025,3.712,7.537,6.173,12.636,6.479c0.062,0.004,0.12,0.017,0.181,0.02C29.759,25.315,29.759,25.314,29.759,25.313z"/>
</g>
</svg>
