<?xml version="1.0" encoding="utf-8"?>
<!-- Generator: Adobe Illustrator 16.0.0, SVG Export Plug-In . SVG Version: 6.00 Build 0)  -->
<!DOCTYPE svg PUBLIC "-//W3C//DTD SVG 1.1//EN" "http://www.w3.org/Graphics/SVG/1.1/DTD/svg11.dtd">
<svg version="1.1" id="レイヤー_1" xmlns="http://www.w3.org/2000/svg" xmlns:xlink="http://www.w3.org/1999/xlink" x="0px"
	 y="0px" width="520.917px" height="517.865px" viewBox="160.464 38.708 520.917 517.865"
	 enable-background="new 160.464 38.708 520.917 517.865" xml:space="preserve">
<title>file_type_vscode</title>
<path fill="#0065A9" d="M662.964,93.571L555.701,41.93c-12.414-5.986-27.258-3.464-37,6.288L167.579,368.33
	c-8.871,8.049-9.538,21.768-1.488,30.639c0.465,0.502,0.93,0.986,1.433,1.432l28.667,26.045c7.729,7.033,19.378,7.551,27.699,1.227
	l422.927-320.707c9.479-7.192,22.99-5.339,30.184,4.139c2.84,3.744,4.379,8.313,4.381,13.013v-1.246
	C681.378,110.376,674.22,98.988,662.964,93.571z"/>
<path fill="#007ACC" d="M662.964,501.71l-107.264,51.658c-12.418,5.969-27.25,3.449-37-6.287L167.579,226.951
	c-8.871-8.05-9.538-21.767-1.488-30.638c0.465-0.502,0.93-0.986,1.433-1.433l28.667-26.043c7.738-7.065,19.423-7.582,27.755-1.228
	l422.872,320.708c9.479,7.191,22.99,5.338,30.184-4.139c2.84-3.744,4.379-8.314,4.381-13.014v1.34
	C681.339,484.962,674.187,496.302,662.964,501.71z"/>
<path fill="#1F9CF0" d="M555.701,553.369c-12.418,5.969-27.25,3.449-37-6.287c7.496,7.396,19.568,7.318,26.965-0.178
	c3.502-3.547,5.475-8.324,5.496-13.309V61.686c0.01-10.521-8.512-19.056-19.033-19.065c-5.064-0.004-9.924,2.01-13.502,5.597
	c9.742-9.748,24.58-12.276,37-6.306l107.244,51.566c11.293,5.391,18.492,16.785,18.51,29.299v349.727
	c0.002,12.504-7.164,23.902-18.436,29.318L555.701,553.369z"/>
</svg>
