<?xml version="1.0" encoding="utf-8"?>
<!-- Generator: Adobe Illustrator 28.3.0, SVG Export Plug-In . SVG Version: 6.00 Build 0)  -->
<svg version="1.1" id="レイヤー_1" xmlns="http://www.w3.org/2000/svg" xmlns:xlink="http://www.w3.org/1999/xlink" x="0px"
	 y="0px" viewBox="0 0 317.1 121" style="enable-background:new 0 0 317.1 121;" xml:space="preserve">
<g>
	<path d="M72.7,65.2c-2.9,0.1-4.9-0.6-6.4-1.2l-4.8,11.7c-3.2,7.6-9.8,10.7-14.9,10.7c-1.6,0-2.9-0.3-4.1-0.8
		c-2.9-1.4-3.6-3.8-3.6-5.7c0-1.2,0.3-2.2,0.4-2.7c0.1-0.6,0.6-1,1.1-1.1c0.4,0,0.7,0.2,0.7,0.8c0,1.2,1.1,2.9,2.9,3.2
		c2.8,0.4,7.3-1.9,10.6-9.7l6.9-16.5c4.2-9.9,10.6-14.8,13.8-16.7c1-0.6,1.8-1,2.5-1.3c-0.7-0.1-1.5-0.2-2.3-0.3
		C67,35.2,59.8,39.1,56.8,44c-1.1,1.9-1.6,4-1.6,5.7c0,2.1,0.6,3.8,1.3,4.1c0.7,0.4,0.6,1.1-0.1,1.4c-0.4,0.1-0.9,0.2-1.5,0.1
		c-1.3-0.3-7.3-3.2-6.2-9.5c1.6-9.2,16.2-15.5,28.4-15c12,0.5,19.6,7.1,19.6,15.6c0,0.9-0.1,1.8-0.3,2.7
		C94.8,58.7,82.4,65.1,72.7,65.2z M88.3,45.9c0-3.7-2.3-6.9-6.3-8.8c-1.5,1.1-3.3,2.5-4.8,4.3c-2.2,2.5-3.7,5.1-7.4,14.1l-1.2,2.9
		c1.4,0.3,3.2,0.5,5.4,0.4c5.7-0.4,11.8-3.7,13.8-9.7C88.1,48,88.3,46.9,88.3,45.9z"/>
	<path d="M113.4,80.4c-1.6,1.4-3.7,2.1-5.8,2.1c-2.3,0-4.6-0.8-6.2-1.9c-3.8,3.5-8.2,5.8-11.8,5.8c-4.2,0-6.4-2.8-6.4-7
		c0-2.3,0.6-5,2.1-8c3.9-8.2,12.2-15,18.6-15c4.1,0,6.4,2.9,6.4,7.1c0,2.3-0.7,5-2.1,7.9c-0.9,1.9-2.1,3.7-3.4,5.4
		c1.1,0.8,2.4,1.1,3.6,1c2.8-0.4,4.9-4.4,6.4-7.6c0.4-0.7,0.9-0.8,1.5-0.6c1,0.4,2,1.8,1.7,2.9C117.9,73.8,115.6,78.4,113.4,80.4z
		 M92.4,71.2c-1,2.1-1.5,4-1.5,5.5c0,2,0.9,3.3,2.5,3.3c1.5,0,3.4-1.1,5.2-2.8c-1.2-2.1-1.6-4.6-1.4-6.7c0.1-1.7,0.8-5.1,2.1-7.3
		C96.8,64.7,94.2,67.7,92.4,71.2z M101.5,70.4c0,0.9,0.2,1.7,0.5,2.5c0.3-0.6,0.6-1.1,0.9-1.7c1-2.1,1.5-4.1,1.5-5.6
		c0-1.2-0.4-2.1-0.9-2.7C102.2,65,101.3,68.6,101.5,70.4z"/>
	<path d="M128.9,85.6c-5.1,0-7.2-2.9-7.2-6.4c0-1.4,0.4-2.9,1-4.2l4.5-9.8c0.4-0.9,0.8-2,0.1-2.6c-0.7-0.6-1-0.7-2.1-0.4
		c-1.2,0.4-2.4,1.1-2.9,2.4c0,0-1.2,2.8-2.3,4.9c-1.6,3.5-4.1,7.9-4.9,8.8c-0.1,0.1-0.3,0.2-0.4,0.2c-0.5-0.1-1.1-0.9-1.4-1.4
		c-0.4-0.8-0.6-1.8-0.4-2.8c0.1-0.2,0.1-0.4,0.2-0.6c0.2-0.6,1.6-3,3.7-7.3c0.8-1.6,1.7-3.7,2.3-5.2c-0.3-0.4-0.5-0.9-0.5-1.6
		c-0.1-2.6,1.7-5,4.2-5.4c3-0.5,4.4,1.9,4.4,3.2c-0.1,0.4-0.1,0.6,0,0.9c0.1,0.3,0.6,0.6,1.4,0.4c0.6-0.3,1.1-0.9,1.1-0.9
		c0.9-0.6,1.8-0.7,2.7-0.3l3.4,1.7c0.6,0.4,0.9,0.9,0.6,1.5l-5.2,11.2c-0.9,1.9-1.7,4.2-1.7,5.7c0,1,0.3,1.6,1.2,1.9
		c4.8,1.1,8.7-8,9.9-10c0.3-0.5,1.4,0,2,0.7c0.6,0.7,1.1,1.9,0.6,3C141.2,78.1,135.6,85.6,128.9,85.6z"/>
	<path d="M142.9,85.8c-3.9,0-6.5-2.4-6.5-5.9c0-1.4,0.4-2.9,1.1-4.5l6.1-12.9h-1.4c-1.1,0-1.1-2.6,0.3-4.1c0.6-0.6,1.4-1.1,2.6-1.1
		h0.9l4.3-9.1c1.3-2.6,4.9-3.7,6.9-3.4c0.9,0.1,1.4,0.7,0.9,1.8l-4.9,10.7h3.7c0.6,0,0.6,0.6,0.5,1.4c-0.4,1.5-2,3.9-3.8,3.9h-2.7
		l-5.4,11.9c-1.4,3-1.1,4.4-0.2,5c1.3,1,3.4,0.7,5.2-0.7c2.2-1.7,4.5-5.2,6.1-8.6c0.4-0.8,1.6-0.4,2.3,0.2c0.6,0.5,1.1,1.8,0.6,2.9
		C156,81,150.9,85.8,142.9,85.8z"/>
	<path d="M192.2,34c0,4.7-5,14.2-9.5,19.9c-4.9,6.4-11.4,12-16.9,13.8l-0.3,0.1l-0.4,0.9c2,3.9,5.2,6.9,7.4,7.8
		c1.4,0.5,3,0.4,4.1-0.4c0.9-0.7,2-2.6,2.9-4.4c0.6-1.4,3.7,1.4,3,2.9c-0.9,1.9-3.1,8.2-11.4,7.1c-4.2-0.6-6.9-6.1-7.8-7.7l-12,24.1
		c-1.1,2.2-4.7,3.7-6.6,3.3c-1-0.2-1.5-0.9-0.8-2.4l12.7-27c-0.9-0.4-1.8-1.2-1.8-2.1c0-1.9,1-4.9,2-5.8c0.6-0.4,2.2-0.6,3.1-0.6
		l2.3-4.1c9-16.1,21.5-30.5,28.4-28.1C191.8,31.5,192.2,32.5,192.2,34z M172.4,54.6c-1.8,3-3.4,5.9-4.7,8.7
		c3.8-1.9,8.7-5.9,12.5-10.7c5.6-7.2,8.6-15.2,6.7-15.8C185.3,36.4,179.1,43.3,172.4,54.6z"/>
	<path d="M205.5,80.4c-1.6,1.4-3.7,2.1-5.8,2.1c-2.3,0-4.6-0.8-6.2-1.9c-3.8,3.5-8.2,5.8-11.8,5.8c-4.2,0-6.4-2.8-6.4-7
		c0-2.3,0.6-5,2.1-8c3.9-8.2,12.2-15,18.6-15c4.1,0,6.4,2.9,6.4,7.1c0,2.3-0.7,5-2.1,7.9c-0.9,1.9-2.1,3.7-3.4,5.4
		c1.1,0.8,2.4,1.1,3.6,1c2.8-0.4,4.9-4.4,6.4-7.6c0.4-0.7,0.9-0.8,1.5-0.6c1,0.4,2,1.8,1.7,2.9C210,73.8,207.8,78.4,205.5,80.4z
		 M184.5,71.2c-1,2.1-1.5,4-1.5,5.5c0,2,0.9,3.3,2.5,3.3c1.5,0,3.4-1.1,5.2-2.8c-1.2-2.1-1.6-4.6-1.4-6.7c0.1-1.7,0.8-5.1,2.1-7.3
		C188.9,64.7,186.3,67.7,184.5,71.2z M193.6,70.4c0,0.9,0.2,1.7,0.5,2.5c0.3-0.6,0.6-1.1,0.9-1.7c1-2.1,1.5-4.1,1.5-5.6
		c0-1.2-0.4-2.1-0.9-2.7C194.3,65,193.4,68.6,193.6,70.4z"/>
	<path d="M238.1,34c0,4.9-3.9,13.8-7.7,19.5c-4.4,6.7-7.7,10.1-11.7,13.2c-1.1,0.9-1.7,0.5-1.9-0.3c-0.2-0.9,0.1-2.4,0.7-2.9
		c3-2.2,5.9-4.7,10-11c5-7.4,7.3-15.6,5.4-16c-1.6-0.4-7.2,6.9-13,18.6c-3.9,7.9-7.7,17.5-7.7,22.7c0,1.8,0.4,3,1.5,3.4
		c1.9,0.8,4.3,0,7.6-3.8c1.8-1.9,2.9-3.9,3.7-5.4c0.4-0.9,1.5-0.7,2.3,0c0.9,0.7,1,1.6,0.6,2.7c-0.6,1.9-1.6,3.9-3.2,5.7
		c-3.6,4-8.2,6-12.1,6c-1.4,0-2.6-0.2-3.7-0.7c-2.3-0.9-3.5-3.5-3.5-7.4c0-5.3,2.3-13.1,7.4-22.7c8.7-16.3,19.6-26.6,23.8-25.1
		C237.6,30.9,238.1,32.2,238.1,34z"/>
	<path d="M229,85.8c-4.1,0.1-6.7-2.3-6.7-6c0-1.4,0.3-2.9,1.1-4.4l8.4-17.7c0.1-0.2,0.4-0.5,0.7-0.5h5.9c0.4,0,0.4,0.3,0.2,0.7
		l-7.4,16.5c-1.4,3-1,4.6,0,5c4,1.9,8.5-6.3,10-9.3c0.4-0.8,1.6-0.4,2.2,0.2c0.6,0.5,1.2,1.8,0.7,2.9C241.9,78.2,237,85.5,229,85.8z
		 M236.8,53.6c-1.1,0-1.8-0.9-1.8-2.1c0-0.9,0.3-1.9,0.9-3.1c1.5-2.9,4.3-5.2,6.2-5.2c1.1,0,1.8,0.8,1.8,2.1c0,0.9-0.3,2-0.9,3.2
		C241.5,51.3,238.7,53.6,236.8,53.6z"/>
	<path d="M268.2,80.4c-1.6,1.4-3.7,2.1-5.8,2.1c-2.3,0-4.6-0.8-6.2-1.9c-3.8,3.5-8.2,5.8-11.8,5.8c-4.2,0-6.4-2.8-6.4-7
		c0-2.3,0.6-5,2.1-8c3.9-8.2,12.2-15,18.6-15c4.1,0,6.4,2.9,6.4,7.1c0,2.3-0.7,5-2.1,7.9c-0.9,1.9-2.1,3.7-3.4,5.4
		c1.1,0.8,2.4,1.1,3.6,1c2.8-0.4,4.9-4.4,6.4-7.6c0.4-0.7,0.9-0.8,1.5-0.6c1,0.4,2,1.8,1.7,2.9C272.7,73.8,270.4,78.4,268.2,80.4z
		 M247.2,71.2c-1,2.1-1.5,4-1.5,5.5c0,2,0.9,3.3,2.5,3.3c1.5,0,3.4-1.1,5.2-2.8c-1.2-2.1-1.6-4.6-1.4-6.7c0.1-1.7,0.8-5.1,2.1-7.3
		C251.6,64.7,248.9,67.7,247.2,71.2z M256.2,70.4c0,0.9,0.2,1.7,0.5,2.5c0.3-0.6,0.6-1.1,0.9-1.7c1-2.1,1.5-4.1,1.5-5.6
		c0-1.2-0.4-2.1-0.9-2.7C257,65,256.1,68.6,256.2,70.4z"/>
</g>
</svg>
